<svg width="268" height="50" viewBox="0 0 268 50" fill="none" xmlns="http://www.w3.org/2000/svg">
<path d="M91.2584 34H86.9834L79.8334 23.175V34H75.5584V16.45H79.8334L86.9834 27.325V16.45H91.2584V34ZM96.0072 27C96.0072 25.5667 96.2739 24.3083 96.8072 23.225C97.3572 22.1417 98.0989 21.3083 99.0322 20.725C99.9655 20.1417 101.007 19.85 102.157 19.85C103.141 19.85 103.999 20.05 104.732 20.45C105.482 20.85 106.057 21.375 106.457 22.025V20.05H110.732V34H106.457V32.025C106.041 32.675 105.457 33.2 104.707 33.6C103.974 34 103.116 34.2 102.132 34.2C100.999 34.2 99.9655 33.9083 99.0322 33.325C98.0989 32.725 97.3572 31.8833 96.8072 30.8C96.2739 29.7 96.0072 28.4333 96.0072 27ZM106.457 27.025C106.457 25.9583 106.157 25.1167 105.557 24.5C104.974 23.8833 104.257 23.575 103.407 23.575C102.557 23.575 101.832 23.8833 101.232 24.5C100.649 25.1 100.357 25.9333 100.357 27C100.357 28.0667 100.649 28.9167 101.232 29.55C101.832 30.1667 102.557 30.475 103.407 30.475C104.257 30.475 104.974 30.1667 105.557 29.55C106.157 28.9333 106.457 28.0917 106.457 27.025ZM130.1 20.05V34H125.825V32.1C125.392 32.7167 124.8 33.2167 124.05 33.6C123.317 33.9667 122.5 34.15 121.6 34.15C120.533 34.15 119.592 33.9167 118.775 33.45C117.958 32.9667 117.325 32.275 116.875 31.375C116.425 30.475 116.2 29.4167 116.2 28.2V20.05H120.45V27.625C120.45 28.5583 120.692 29.2833 121.175 29.8C121.658 30.3167 122.308 30.575 123.125 30.575C123.958 30.575 124.617 30.3167 125.1 29.8C125.583 29.2833 125.825 28.5583 125.825 27.625V20.05H130.1ZM144.196 34L139.946 28.15V34H135.671V15.5H139.946V25.725L144.171 20.05H149.446L143.646 27.05L149.496 34H144.196ZM157.9 22.375C158.4 21.6083 159.025 21.0083 159.775 20.575C160.525 20.125 161.358 19.9 162.275 19.9V24.425H161.1C160.033 24.425 159.233 24.6583 158.7 25.125C158.166 25.575 157.9 26.375 157.9 27.525V34H153.625V20.05H157.9V22.375ZM168.968 18.6C168.218 18.6 167.601 18.3833 167.118 17.95C166.651 17.5 166.418 16.95 166.418 16.3C166.418 15.6333 166.651 15.0833 167.118 14.65C167.601 14.2 168.218 13.975 168.968 13.975C169.701 13.975 170.301 14.2 170.768 14.65C171.251 15.0833 171.493 15.6333 171.493 16.3C171.493 16.95 171.251 17.5 170.768 17.95C170.301 18.3833 169.701 18.6 168.968 18.6ZM171.093 20.05V34H166.818V20.05H171.093ZM178.691 34.2C177.941 34.2 177.325 33.9833 176.841 33.55C176.375 33.1 176.141 32.55 176.141 31.9C176.141 31.2333 176.375 30.675 176.841 30.225C177.325 29.775 177.941 29.55 178.691 29.55C179.425 29.55 180.025 29.775 180.491 30.225C180.975 30.675 181.216 31.2333 181.216 31.9C181.216 32.55 180.975 33.1 180.491 33.55C180.025 33.9833 179.425 34.2 178.691 34.2ZM185.397 27.025C185.397 25.575 185.689 24.3083 186.272 23.225C186.872 22.1417 187.697 21.3083 188.747 20.725C189.814 20.1417 191.03 19.85 192.397 19.85C194.147 19.85 195.605 20.3083 196.772 21.225C197.955 22.1417 198.73 23.4333 199.097 25.1H194.547C194.164 24.0333 193.422 23.5 192.322 23.5C191.539 23.5 190.914 23.8083 190.447 24.425C189.98 25.025 189.747 25.8917 189.747 27.025C189.747 28.1583 189.98 29.0333 190.447 29.65C190.914 30.25 191.539 30.55 192.322 30.55C193.422 30.55 194.164 30.0167 194.547 28.95H199.097C198.73 30.5833 197.955 31.8667 196.772 32.8C195.589 33.7333 194.13 34.2 192.397 34.2C191.03 34.2 189.814 33.9083 188.747 33.325C187.697 32.7417 186.872 31.9083 186.272 30.825C185.689 29.7417 185.397 28.475 185.397 27.025ZM210.234 34.2C208.867 34.2 207.634 33.9083 206.534 33.325C205.45 32.7417 204.592 31.9083 203.959 30.825C203.342 29.7417 203.034 28.475 203.034 27.025C203.034 25.5917 203.35 24.3333 203.984 23.25C204.617 22.15 205.484 21.3083 206.584 20.725C207.684 20.1417 208.917 19.85 210.284 19.85C211.65 19.85 212.884 20.1417 213.984 20.725C215.084 21.3083 215.95 22.15 216.584 23.25C217.217 24.3333 217.534 25.5917 217.534 27.025C217.534 28.4583 217.209 29.725 216.559 30.825C215.925 31.9083 215.05 32.7417 213.934 33.325C212.834 33.9083 211.6 34.2 210.234 34.2ZM210.234 30.5C211.05 30.5 211.742 30.2 212.309 29.6C212.892 29 213.184 28.1417 213.184 27.025C213.184 25.9083 212.9 25.05 212.334 24.45C211.784 23.85 211.1 23.55 210.284 23.55C209.45 23.55 208.759 23.85 208.209 24.45C207.659 25.0333 207.384 25.8917 207.384 27.025C207.384 28.1417 207.65 29 208.184 29.6C208.734 30.2 209.417 30.5 210.234 30.5ZM240.102 19.9C241.835 19.9 243.21 20.425 244.227 21.475C245.26 22.525 245.777 23.9833 245.777 25.85V34H241.527V26.425C241.527 25.525 241.285 24.8333 240.802 24.35C240.335 23.85 239.685 23.6 238.852 23.6C238.018 23.6 237.36 23.85 236.877 24.35C236.41 24.8333 236.177 25.525 236.177 26.425V34H231.927V26.425C231.927 25.525 231.685 24.8333 231.202 24.35C230.735 23.85 230.085 23.6 229.252 23.6C228.418 23.6 227.76 23.85 227.277 24.35C226.81 24.8333 226.577 25.525 226.577 26.425V34H222.302V20.05H226.577V21.8C227.01 21.2167 227.577 20.7583 228.277 20.425C228.977 20.075 229.768 19.9 230.652 19.9C231.702 19.9 232.635 20.125 233.452 20.575C234.285 21.025 234.935 21.6667 235.402 22.5C235.885 21.7333 236.543 21.1083 237.377 20.625C238.21 20.1417 239.118 19.9 240.102 19.9Z" fill="#2563EB"/>
<rect width="56.0669" height="50" rx="10" fill="#2563EB"/>
<path d="M39.1397 9.5625V38H33.2803L21.8545 18.9375V38H15.9951V9.5625H21.8545L33.2998 28.6445V9.5625H39.1397Z" fill="white"/>
</svg>
